<?xml version="1.0" encoding="utf-8"?>
<svg xmlns="http://www.w3.org/2000/svg" width="2215" height="316" viewBox="0 0 2215 316" fill="none">
<path d="M1094.67 22.8865C1094.69 19.5578 1097.37 16.8467 1100.77 16.717C1142.47 15.099 1168.05 16.1303 1178.99 19.8789C1201.81 27.7158 1214.39 47.688 1214.39 76.1207C1214.39 103.491 1203.49 138.013 1143.26 138.013H1094.06L1094.67 22.8865ZM1229.48 213.282C1229.48 256.802 1205.65 279.615 1159 281.079C1145.42 281.511 1133.3 281.53 1131.48 281.48C1104.33 280.702 1094.72 274.131 1094.72 256.358L1094.41 148.666L1144.02 148.728C1190.78 148.728 1229.48 153.582 1229.48 213.282ZM1072.74 289.694L1148.9 289.916C1226.94 289.916 1269.92 261.99 1269.92 211.281C1269.92 176.488 1247.01 150.223 1208.65 141.033L1199.92 138.94L1208.29 135.71C1237.21 124.563 1253.14 102.089 1253.14 72.4277C1253.14 50.3126 1239.92 28.3519 1221 19.0329C1199.99 8.52187 1179.08 6.41597 1152.14 6.41597L1028.61 6.27393L1027.47 14.012C1052.56 15.6856 1057.98 17.8657 1057.98 35.1081V262.342C1057.98 277.071 1048.03 280.171 1028.45 280.745C1028.18 282.487 1027.53 286.748 1027.28 288.446C1028.66 289.076 1063.09 289.515 1072.74 289.694Z" fill="#D9D9D9"/>
<path d="M867.633 285.081C803.586 285.081 770.087 219.217 770.087 154.156C770.087 56.1671 821.548 12.3075 872.546 12.3075C905.138 12.3075 972.432 46.1007 972.432 150.575C972.432 215.783 935.705 285.081 867.633 285.081ZM869.621 3.50098C821.344 3.50098 730.045 34.6511 730.045 152.545C730.045 205.038 759.025 293.875 867.633 293.875C982.037 293.875 1012.57 204.043 1012.57 150.964C1012.57 49.6456 938.47 3.50098 869.621 3.50098Z" fill="#D9D9D9"/>
<path d="M672.279 34.7807C672.279 34.7807 639.62 3.50098 584.091 3.50098C500.631 3.50098 440.059 65.3565 440.059 150.575C440.059 238.967 493.841 293.875 580.412 293.875C639.978 293.875 674.514 262.354 674.514 262.354L684.841 283.771C684.976 284.055 685.273 284.241 685.581 284.241H691.415L692.106 195.052L685.797 194.119C673.829 250.034 633.972 284.722 581.591 284.722C518.031 284.722 480.051 217.71 480.051 152.927C480.051 85.1989 512.606 12.3075 584.091 12.3075C646.28 12.3075 676.329 61.929 683.779 108.623L690.149 109.414L690.853 16.4575C689.334 16.2105 686.106 15.6794 685.649 15.5929C685.637 15.6176 685.439 15.5621 684.909 16.1673C684.131 17.0442 672.279 34.7807 672.279 34.7807Z" fill="#D9D9D9"/>
<path d="M248.643 171.342L292.549 56.2461L338.832 171.342H248.643ZM429.6 276.872C422.181 272.975 416.02 263.847 408.348 245.357C400.712 226.948 382.645 181.612 365.176 137.771C346.622 91.2003 329.097 47.2172 324.585 36.7742C320.332 26.9302 312.413 6.93952 309.894 0.560059C307.289 5.72909 298.987 19.822 281.735 29.8821C283.759 34.2483 286.889 42.604 286.889 42.604C286.889 42.604 211.348 237.811 204.96 253.793C199.058 268.553 192.287 278.28 176.96 280.972L176.047 288.173L249.168 288.266L250.217 281.09C245.829 280.651 228.366 278.718 223.595 274.945C218.039 270.554 215.323 265.614 218.941 254.59C224.588 237.378 245.1 180.89 245.1 180.89H342.665C342.665 180.89 366.88 245.215 367.3 246.413C370.942 256.931 373.818 265.243 369.627 271.258C364.942 277.983 354.56 281.084 338.202 280.806L337.042 288.173H442.871L443.797 281.497C441.489 281.108 435.273 279.848 429.6 276.872Z" fill="#D9D9D9"/>
<path d="M196.499 13.1387L197.27 7.47565L96.2858 7.03101L91.36 12.6756C111.921 13.2684 116.334 15.1891 122.236 21.9699C126.501 26.8611 127.766 39.1321 127.834 44.9373C127.927 51.996 127.797 195.377 127.797 195.377C127.797 229.176 124.507 246.925 115.656 260.857C105.773 276.407 89.7181 285.325 71.6076 285.325H71.5458C58.0339 285.307 42.9233 277.834 40.2074 263.568C39.8864 261.87 39.5901 254.292 38.4667 251.26C36.1766 245.066 30.3311 240.113 23.4116 238.304C13.3194 235.673 6.15293 240.107 2.99871 244.492C-1.1493 250.291 -0.883881 259.264 3.65918 266.304C12.8317 280.514 36.9482 288.87 56.4476 291.945C75.0025 294.867 94.9525 293.452 111.174 288.049C123.834 283.831 133.087 277.704 143.105 266.903C157.228 251.674 163.524 226.181 163.524 182.716C163.524 139.252 163.432 44.857 163.506 38.6072C163.58 32.3636 163.339 26.0768 168.24 20.9386C175.598 13.2314 192.492 13.0461 196.499 13.1387Z" fill="#D9D9D9"/>
<path d="M2069.67 285.081C2005.63 285.081 1972.12 219.217 1972.12 154.156C1972.12 56.1671 2023.59 12.3075 2074.59 12.3075C2107.18 12.3075 2174.48 46.1007 2174.48 150.575C2174.48 215.783 2137.74 285.081 2069.67 285.081ZM2071.67 3.50098C2023.39 3.50098 1932.09 34.6511 1932.09 152.545C1932.09 205.038 1961.06 293.875 2069.67 293.875C2184.08 293.875 2214.61 204.043 2214.61 150.964C2214.61 49.6456 2140.51 3.50098 2071.67 3.50098Z" fill="#D9D9D9"/>
<path d="M1414.49 257.5C1383.87 249.274 1366 217.933 1369.43 181.965C1372.14 153.681 1393.87 141.354 1402.9 135.135C1416.88 154.2 1456.97 200.011 1490.44 234.65C1460.46 260.619 1434.34 262.83 1414.49 257.5ZM1401.93 36.1085C1404.95 28.3951 1410.95 22.7382 1419.27 19.7245C1444.56 10.5906 1467.83 22.9482 1476.89 39.221C1487.28 57.8901 1479.18 80.1966 1456.25 96.0496C1451.07 99.6253 1433.93 109.883 1433.93 109.883C1433.93 109.883 1415.08 89.4416 1406.11 71.6063C1399.59 58.6374 1398.01 46.076 1401.93 36.1085ZM1782.43 293.875C1841.22 293.875 1876.52 262.354 1876.52 262.354L1886.86 283.771C1887 284.062 1887.28 284.241 1887.6 284.241H1893.44L1894.11 195.052L1887.81 194.119C1875.85 250.034 1835.99 284.722 1783.61 284.722C1720.05 284.722 1682.06 217.71 1682.06 152.927C1682.06 85.1989 1714.62 12.3075 1786.11 12.3075C1848.3 12.3075 1878.34 61.929 1885.8 108.623L1892.17 109.414L1892.86 16.4575C1891.35 16.2105 1888.12 15.6794 1887.67 15.5929C1887.58 15.5682 1887.43 15.5806 1886.93 16.1611C1886.15 17.0442 1874.29 34.7807 1874.29 34.7807C1874.29 34.7807 1841.61 3.50098 1786.11 3.50098C1702.65 3.50098 1643.12 64.5598 1641.88 149.772C1640.58 239.412 1700.87 272.445 1700.87 272.445C1700.87 272.445 1679.12 300.335 1646.56 301.508C1591.06 303.503 1536.75 223.114 1525.4 213.208C1537.53 197.676 1559.51 162.895 1573.25 153.804C1586.35 145.14 1598.29 144.214 1601.64 144.195L1602.67 138.347H1530.9C1530.35 141.249 1530 143.053 1529.73 144.177C1536.24 144.294 1545.47 144.603 1549.92 148.018C1553.29 150.618 1553.84 153.736 1547.79 164.445C1540.76 176.852 1527.42 195.589 1518.94 205.785C1503.52 187.814 1454.12 130.318 1438.75 115.132C1473.91 99.3041 1506.14 83.9514 1507.29 54.6108C1507.86 40.1103 1496.75 14.154 1464.52 6.24915C1454.51 3.80358 1428.78 0.0487789 1405.75 18.0632C1397.72 24.3439 1379.07 42.3521 1379.27 73.8171C1379.37 90.4915 1384.18 107.085 1398.33 128.435C1325.08 165.359 1334.99 219.1 1338.37 234.644C1343.13 256.426 1368.67 290.083 1417.06 289.07C1468.09 288.002 1499.72 244.383 1499.72 244.383C1499.72 244.383 1518.16 263.071 1529.73 273.501C1576.62 315.774 1623.68 320.9 1652.2 312.433C1688.56 301.631 1706.46 275.589 1706.46 275.589C1706.46 275.589 1734.35 293.875 1782.43 293.875Z" fill="#D9D9D9"/>
</svg>