<?xml version="1.0" encoding="utf-8"?>
<svg xmlns="http://www.w3.org/2000/svg" width="2215" height="316" viewBox="0 0 2215 316" fill="none">
<path d="M1094.67 22.7126C1094.69 19.384 1097.37 16.6728 1100.77 16.5432C1142.47 14.9251 1168.05 15.9565 1178.99 19.7051C1201.81 27.542 1214.39 47.5141 1214.39 75.9469C1214.39 103.317 1203.49 137.839 1143.26 137.839H1094.06L1094.67 22.7126ZM1229.48 213.108C1229.48 256.628 1205.65 279.441 1159 280.905C1145.42 281.337 1133.3 281.356 1131.48 281.306C1104.33 280.528 1094.72 273.957 1094.72 256.184L1094.41 148.492L1144.02 148.554C1190.78 148.554 1229.48 153.408 1229.48 213.108ZM1072.74 289.52L1148.9 289.742C1226.94 289.742 1269.92 261.816 1269.92 211.108C1269.92 176.314 1247.01 150.049 1208.65 140.859L1199.92 138.766L1208.29 135.536C1237.21 124.389 1253.14 101.916 1253.14 72.2539C1253.14 50.1388 1239.92 28.1781 1221 18.859C1199.99 8.34804 1179.08 6.24214 1152.14 6.24214L1028.61 6.1001L1027.47 13.8382C1052.56 15.5118 1057.98 17.6918 1057.98 34.9343V262.168C1057.98 276.897 1048.03 279.997 1028.45 280.571C1028.18 282.313 1027.53 286.574 1027.28 288.273C1028.66 288.902 1063.09 289.341 1072.74 289.52Z" fill="#0A0A0A"/>
<path d="M867.633 284.907C803.586 284.907 770.087 219.043 770.087 153.983C770.087 55.9933 821.548 12.1337 872.546 12.1337C905.138 12.1337 972.432 45.9269 972.432 150.401C972.432 215.61 935.705 284.907 867.633 284.907ZM869.621 3.32715C821.344 3.32715 730.045 34.4772 730.045 152.371C730.045 204.864 759.025 293.701 867.633 293.701C982.037 293.701 1012.57 203.87 1012.57 150.79C1012.57 49.4717 938.47 3.32715 869.621 3.32715Z" fill="#0A0A0A"/>
<path d="M672.279 34.6069C672.279 34.6069 639.62 3.32715 584.091 3.32715C500.631 3.32715 440.059 65.1827 440.059 150.401C440.059 238.793 493.841 293.701 580.412 293.701C639.978 293.701 674.514 262.18 674.514 262.18L684.841 283.598C684.976 283.882 685.273 284.067 685.581 284.067H691.415L692.106 194.878L685.797 193.945C673.829 249.86 633.972 284.549 581.591 284.549C518.031 284.549 480.051 217.536 480.051 152.754C480.051 85.0251 512.606 12.1337 584.091 12.1337C646.28 12.1337 676.329 61.7551 683.779 108.449L690.149 109.24L690.853 16.2837C689.334 16.0367 686.106 15.5056 685.649 15.4191C685.637 15.4438 685.439 15.3882 684.909 15.9934C684.131 16.8704 672.279 34.6069 672.279 34.6069Z" fill="#0A0A0A"/>
<path d="M248.643 171.168L292.549 56.0722L338.832 171.168H248.643ZM429.6 276.698C422.181 272.801 416.02 263.673 408.348 245.184C400.712 226.774 382.645 181.438 365.176 137.597C346.622 91.0265 329.097 47.0434 324.585 36.6004C320.332 26.7563 312.413 6.7657 309.894 0.38623C307.289 5.55526 298.987 19.6481 281.735 29.7083C283.759 34.0745 286.889 42.4302 286.889 42.4302C286.889 42.4302 211.348 237.637 204.96 253.62C199.058 268.379 192.287 278.106 176.96 280.799L176.047 287.999L249.168 288.092L250.217 280.916C245.829 280.477 228.366 278.545 223.595 274.771C218.039 270.38 215.323 265.44 218.941 254.416C224.588 237.205 245.1 180.716 245.1 180.716H342.665C342.665 180.716 366.88 245.042 367.3 246.24C370.942 256.757 373.818 265.069 369.627 271.084C364.942 277.81 354.56 280.91 338.202 280.632L337.042 287.999H442.871L443.797 281.324C441.489 280.934 435.273 279.675 429.6 276.698Z" fill="#0A0A0A"/>
<path d="M196.499 12.9649L197.27 7.30183L96.2858 6.85718L91.36 12.5017C111.921 13.0946 116.334 15.0152 122.236 21.7961C126.501 26.6872 127.766 38.9583 127.834 44.7634C127.927 51.8222 127.797 195.203 127.797 195.203C127.797 229.002 124.507 246.751 115.656 260.683C105.773 276.234 89.7181 285.151 71.6076 285.151H71.5458C58.0339 285.133 42.9233 277.66 40.2074 263.394C39.8864 261.696 39.5901 254.119 38.4667 251.086C36.1766 244.892 30.3311 239.939 23.4116 238.13C13.3194 235.499 6.15293 239.933 2.99871 244.318C-1.1493 250.117 -0.883881 259.09 3.65918 266.13C12.8317 280.34 36.9482 288.696 56.4476 291.772C75.0025 294.693 94.9525 293.279 111.174 287.875C123.834 283.657 133.087 277.531 143.105 266.729C157.228 251.5 163.524 226.007 163.524 182.543C163.524 139.078 163.432 44.6831 163.506 38.4334C163.58 32.1898 163.339 25.9029 168.24 20.7648C175.598 13.0575 192.492 12.8723 196.499 12.9649Z" fill="#0A0A0A"/>
<path d="M2069.67 284.907C2005.63 284.907 1972.12 219.043 1972.12 153.983C1972.12 55.9933 2023.59 12.1337 2074.59 12.1337C2107.18 12.1337 2174.48 45.9269 2174.48 150.401C2174.48 215.61 2137.74 284.907 2069.67 284.907ZM2071.67 3.32715C2023.39 3.32715 1932.09 34.4772 1932.09 152.371C1932.09 204.864 1961.06 293.701 2069.67 293.701C2184.08 293.701 2214.61 203.87 2214.61 150.79C2214.61 49.4717 2140.51 3.32715 2071.67 3.32715Z" fill="#0A0A0A"/>
<path d="M1414.49 257.326C1383.87 249.1 1366 217.759 1369.43 181.792C1372.14 153.507 1393.87 141.18 1402.9 134.962C1416.88 154.026 1456.97 199.837 1490.44 234.476C1460.46 260.445 1434.34 262.656 1414.49 257.326ZM1401.93 35.9347C1404.95 28.2213 1410.95 22.5644 1419.27 19.5506C1444.56 10.4168 1467.83 22.7743 1476.89 39.0472C1487.28 57.7163 1479.18 80.0228 1456.25 95.8757C1451.07 99.4514 1433.93 109.709 1433.93 109.709C1433.93 109.709 1415.08 89.2678 1406.11 71.4324C1399.59 58.4635 1398.01 45.9022 1401.93 35.9347ZM1782.43 293.701C1841.22 293.701 1876.52 262.18 1876.52 262.18L1886.86 283.598C1887 283.888 1887.28 284.067 1887.6 284.067H1893.44L1894.11 194.878L1887.81 193.945C1875.85 249.86 1835.99 284.549 1783.61 284.549C1720.05 284.549 1682.06 217.536 1682.06 152.754C1682.06 85.0251 1714.62 12.1337 1786.11 12.1337C1848.3 12.1337 1878.34 61.7552 1885.8 108.449L1892.17 109.24L1892.86 16.2837C1891.35 16.0367 1888.12 15.5056 1887.67 15.4191C1887.58 15.3944 1887.43 15.4068 1886.93 15.9873C1886.15 16.8704 1874.29 34.6069 1874.29 34.6069C1874.29 34.6069 1841.61 3.32715 1786.11 3.32715C1702.65 3.32715 1643.12 64.386 1641.88 149.598C1640.58 239.238 1700.87 272.271 1700.87 272.271C1700.87 272.271 1679.12 300.161 1646.56 301.334C1591.06 303.329 1536.75 222.94 1525.4 213.034C1537.53 197.503 1559.51 162.721 1573.25 153.631C1586.35 144.966 1598.29 144.04 1601.64 144.021L1602.67 138.173H1530.9C1530.35 141.075 1530 142.879 1529.73 144.003C1536.24 144.12 1545.47 144.429 1549.92 147.844C1553.29 150.444 1553.84 153.563 1547.79 164.271C1540.76 176.678 1527.42 195.415 1518.94 205.611C1503.52 187.64 1454.12 130.145 1438.75 114.959C1473.91 99.1303 1506.14 83.7776 1507.29 54.437C1507.86 39.9365 1496.75 13.9802 1464.52 6.07532C1454.51 3.62976 1428.78 -0.125049 1405.75 17.8894C1397.72 24.17 1379.07 42.1783 1379.27 73.6433C1379.37 90.3176 1384.18 106.912 1398.33 128.261C1325.08 165.185 1334.99 218.926 1338.37 234.47C1343.13 256.252 1368.67 289.909 1417.06 288.896C1468.09 287.828 1499.72 244.209 1499.72 244.209C1499.72 244.209 1518.16 262.897 1529.73 273.327C1576.62 315.6 1623.68 320.726 1652.2 312.259C1688.56 301.458 1706.46 275.415 1706.46 275.415C1706.46 275.415 1734.35 293.701 1782.43 293.701Z" fill="#0A0A0A"/>
</svg>